<svg width="88" height="87" viewBox="0 0 88 87" fill="none" xmlns="http://www.w3.org/2000/svg">
<path fill-rule="evenodd" clip-rule="evenodd" d="M68.5929 19.1867C70.0248 20.6024 70.0248 22.8976 68.5929 24.3133L24.5929 67.8133C23.161 69.2289 20.8394 69.2289 19.4074 67.8133C17.9755 66.3976 17.9755 64.1024 19.4074 62.6867L63.4074 19.1867C64.8394 17.7711 67.161 17.7711 68.5929 19.1867Z" fill="black"/>
<path fill-rule="evenodd" clip-rule="evenodd" d="M19.4074 19.1867C20.8394 17.7711 23.161 17.7711 24.5929 19.1867L68.5929 62.6867C70.0248 64.1024 70.0248 66.3976 68.5929 67.8133C67.161 69.2289 64.8394 69.2289 63.4074 67.8133L19.4074 24.3133C17.9755 22.8976 17.9755 20.6024 19.4074 19.1867Z" fill="black"/>
</svg>
