<svg width="16" height="16" viewBox="0 0 16 16" fill="none" xmlns="http://www.w3.org/2000/svg">
<path fill-rule="evenodd" clip-rule="evenodd" d="M7.99999 2.00008C4.68628 2.00008 1.99999 4.68637 1.99999 8.00008C1.99999 11.3138 4.68628 14.0001 7.99999 14.0001C11.3137 14.0001 14 11.3138 14 8.00008C14 4.68637 11.3137 2.00008 7.99999 2.00008ZM0.666656 8.00008C0.666656 3.94999 3.9499 0.666748 7.99999 0.666748C12.0501 0.666748 15.3333 3.94999 15.3333 8.00008C15.3333 12.0502 12.0501 15.3334 7.99999 15.3334C3.9499 15.3334 0.666656 12.0502 0.666656 8.00008Z" fill="black"/>
<path fill-rule="evenodd" clip-rule="evenodd" d="M7.99999 7.33341C8.36818 7.33341 8.66666 7.63189 8.66666 8.00008V10.6667C8.66666 11.0349 8.36818 11.3334 7.99999 11.3334C7.6318 11.3334 7.33332 11.0349 7.33332 10.6667V8.00008C7.33332 7.63189 7.6318 7.33341 7.99999 7.33341Z" fill="black"/>
<path d="M8.66666 5.33341C8.66666 5.7016 8.36818 6.00008 7.99999 6.00008C7.6318 6.00008 7.33332 5.7016 7.33332 5.33341C7.33332 4.96522 7.6318 4.66675 7.99999 4.66675C8.36818 4.66675 8.66666 4.96522 8.66666 5.33341Z" fill="black"/>
</svg>
