<svg width="215" height="201" viewBox="0 0 215 201" fill="none" xmlns="http://www.w3.org/2000/svg">
<circle cx="105.262" cy="52.7707" r="52.7707" fill="#FFD12D"/>
<circle cx="52.7707" cy="96.8859" r="52.7707" fill="#FFD12D"/>
<circle cx="78.458" cy="142.118" r="52.7707" fill="#FFD12D"/>
<circle cx="145.468" cy="147.702" r="52.7707" fill="#FFD12D"/>
<circle cx="162.221" cy="89.6264" r="52.7707" fill="#FFD12D"/>
<ellipse cx="77.9917" cy="95.5" rx="23" ry="23.5" fill="white"/>
<circle cx="78.4917" cy="95.5" r="19.5" fill="black"/>
<circle cx="143.492" cy="95.5" r="23.5" fill="white"/>
<circle cx="143.492" cy="95.5" r="19.5" fill="black"/>
<mask id="path-10-outside-1_1463_879" maskUnits="userSpaceOnUse" x="88.9917" y="126" width="45" height="24" fill="black">
<rect fill="white" x="88.9917" y="126" width="45" height="24"/>
<path d="M89.9917 127.5C89.9917 133.202 92.2569 138.671 96.2889 142.703C100.321 146.735 105.79 149 111.492 149C117.194 149 122.662 146.735 126.694 142.703C130.727 138.671 132.992 133.202 132.992 127.5L128.935 127.5C128.935 132.126 127.097 136.563 123.826 139.834C120.555 143.105 116.118 144.943 111.492 144.943C106.865 144.943 102.429 143.105 99.1574 139.834C95.8862 136.563 94.0484 132.126 94.0484 127.5L89.9917 127.5Z"/>
</mask>
<path d="M89.9917 127.5C89.9917 133.202 92.2569 138.671 96.2889 142.703C100.321 146.735 105.79 149 111.492 149C117.194 149 122.662 146.735 126.694 142.703C130.727 138.671 132.992 133.202 132.992 127.5L128.935 127.5C128.935 132.126 127.097 136.563 123.826 139.834C120.555 143.105 116.118 144.943 111.492 144.943C106.865 144.943 102.429 143.105 99.1574 139.834C95.8862 136.563 94.0484 132.126 94.0484 127.5L89.9917 127.5Z" fill="black"/>
<path d="M89.9917 127.5C89.9917 133.202 92.2569 138.671 96.2889 142.703C100.321 146.735 105.79 149 111.492 149C117.194 149 122.662 146.735 126.694 142.703C130.727 138.671 132.992 133.202 132.992 127.5L128.935 127.5C128.935 132.126 127.097 136.563 123.826 139.834C120.555 143.105 116.118 144.943 111.492 144.943C106.865 144.943 102.429 143.105 99.1574 139.834C95.8862 136.563 94.0484 132.126 94.0484 127.5L89.9917 127.5Z" stroke="black" stroke-width="2" stroke-miterlimit="2.61313" stroke-linecap="round" mask="url(#path-10-outside-1_1463_879)"/>
</svg>
