<svg width="18" height="18" viewBox="0 0 18 18" fill="none" xmlns="http://www.w3.org/2000/svg">
<path fill-rule="evenodd" clip-rule="evenodd" d="M3.75 3C3.33579 3 3 3.33579 3 3.75V14.25C3 14.6642 3.33579 15 3.75 15H14.25C14.6642 15 15 14.6642 15 14.25V3.75C15 3.33579 14.6642 3 14.25 3H3.75ZM1.5 3.75C1.5 2.50736 2.50736 1.5 3.75 1.5H14.25C15.4926 1.5 16.5 2.50736 16.5 3.75V14.25C16.5 15.4926 15.4926 16.5 14.25 16.5H3.75C2.50736 16.5 1.5 15.4926 1.5 14.25V3.75Z" fill="black"/>
<path fill-rule="evenodd" clip-rule="evenodd" d="M6.375 6C6.16789 6 6 6.16789 6 6.375C6 6.58211 6.16789 6.75 6.375 6.75C6.58211 6.75 6.75 6.58211 6.75 6.375C6.75 6.16789 6.58211 6 6.375 6ZM4.5 6.375C4.5 5.33947 5.33947 4.5 6.375 4.5C7.41053 4.5 8.25 5.33947 8.25 6.375C8.25 7.41053 7.41053 8.25 6.375 8.25C5.33947 8.25 4.5 7.41053 4.5 6.375Z" fill="black"/>
<path fill-rule="evenodd" clip-rule="evenodd" d="M11.4697 6.96967C11.7626 6.67678 12.2374 6.67678 12.5303 6.96967L16.2803 10.7197C16.5732 11.0126 16.5732 11.4874 16.2803 11.7803C15.9874 12.0732 15.5126 12.0732 15.2197 11.7803L12 8.56066L4.28033 16.2803C3.98744 16.5732 3.51256 16.5732 3.21967 16.2803C2.92678 15.9874 2.92678 15.5126 3.21967 15.2197L11.4697 6.96967Z" fill="black"/>
</svg>
