<svg width="40" height="40" viewBox="0 0 40 40" fill="none" xmlns="http://www.w3.org/2000/svg">
<circle cx="20" cy="20" r="15" fill="#FFD12D"/>
<path d="M20.2266 3.75005C11.0875 3.62661 3.62661 11.0875 3.75005 20.2266C3.87192 28.9915 11.0086 36.1282 19.7735 36.25C28.9141 36.375 36.3735 28.9141 36.2485 19.775C36.1282 11.0086 28.9914 3.87192 20.2266 3.75005ZM30.1032 29.3165C30.072 29.3501 30.0339 29.3765 29.9914 29.3938C29.949 29.411 29.9032 29.4187 29.8575 29.4164C29.8117 29.414 29.767 29.4015 29.7266 29.38C29.6861 29.3584 29.6509 29.3282 29.6235 29.2915C28.9247 28.3772 28.0689 27.5944 27.0961 26.9797C25.1071 25.7032 22.5868 25 20 25C17.4133 25 14.893 25.7032 12.904 26.9797C11.9312 27.5942 11.0754 28.3767 10.3766 29.2907C10.3492 29.3274 10.314 29.3576 10.2735 29.3792C10.2331 29.4008 10.1884 29.4132 10.1426 29.4156C10.0968 29.418 10.0511 29.4103 10.0086 29.393C9.96618 29.3757 9.92804 29.3493 9.89692 29.3157C7.60448 26.841 6.3059 23.6073 6.25004 20.2344C6.1227 12.6321 12.361 6.26879 19.9665 6.25004C27.5719 6.23129 33.75 12.4071 33.75 20C33.7527 23.4543 32.4501 26.7819 30.1032 29.3165V29.3165Z" fill="black"/>
<path d="M20 11.25C18.4594 11.25 17.0664 11.8273 16.0766 12.8766C15.0868 13.9258 14.5922 15.3766 14.7039 16.9336C14.9305 20 17.3063 22.5 20 22.5C22.6938 22.5 25.0649 20 25.2961 16.9344C25.4118 15.3922 24.9211 13.9547 23.9149 12.8859C22.9211 11.8313 21.5305 11.25 20 11.25Z" fill="black"/>
</svg>
