<svg width="24" height="24" viewBox="0 0 24 24" fill="none" xmlns="http://www.w3.org/2000/svg">
<path d="M12.136 2.25005C6.65255 2.17599 2.17599 6.65255 2.25005 12.136C2.32318 17.3949 6.60521 21.6769 11.8641 21.7501C17.3485 21.8251 21.8241 17.3485 21.7491 11.8651C21.6769 6.60521 17.3949 2.32318 12.136 2.25005ZM18.0619 17.5899C18.0433 17.6101 18.0204 17.6259 17.9949 17.6363C17.9694 17.6466 17.942 17.6513 17.9145 17.6498C17.887 17.6484 17.8602 17.641 17.836 17.628C17.8117 17.6151 17.7906 17.5969 17.7741 17.5749C17.3548 17.0263 16.8414 16.5567 16.2577 16.1879C15.0643 15.4219 13.5521 15.0001 12.0001 15.0001C10.448 15.0001 8.93583 15.4219 7.74239 16.1879C7.15874 16.5565 6.64528 17.026 6.22599 17.5744C6.20952 17.5965 6.1884 17.6146 6.16414 17.6275C6.13988 17.6405 6.11306 17.6479 6.0856 17.6494C6.05813 17.6508 6.03069 17.6462 6.00521 17.6358C5.97973 17.6255 5.95685 17.6096 5.93818 17.5894C4.56271 16.1046 3.78356 14.1644 3.75005 12.1407C3.67365 7.57927 7.41661 3.7613 11.9799 3.75005C16.5432 3.7388 20.2501 7.44427 20.2501 12.0001C20.2516 14.0726 19.4701 16.0692 18.0619 17.5899Z" fill="current"/>
<path d="M12 6.75C11.0756 6.75 10.2398 7.09641 9.6459 7.72594C9.05199 8.35547 8.75527 9.22594 8.82231 10.1602C8.95824 12 10.3837 13.5 12 13.5C13.6162 13.5 15.0389 12 15.1776 10.1606C15.247 9.23531 14.9526 8.37281 14.3489 7.73156C13.7526 7.09875 12.9182 6.75 12 6.75Z" fill="current"/>
</svg>
