<svg width="15" height="16" viewBox="0 0 15 16" fill="none" xmlns="http://www.w3.org/2000/svg">
<path fill-rule="evenodd" clip-rule="evenodd" d="M9.61239 11.5653C8.70296 12.1314 7.62926 12.4584 6.47919 12.4584C3.2 12.4584 0.541687 9.80007 0.541687 6.52087C0.541687 3.24168 3.2 0.583374 6.47919 0.583374C9.75838 0.583374 12.4167 3.24168 12.4167 6.52087C12.4167 8.07705 11.818 9.49341 10.8384 10.5522L14.3279 14.1096C14.6371 14.4188 14.6371 14.92 14.3279 15.2292C14.0188 15.5384 13.5175 15.5384 13.2084 15.2292L9.61239 11.5653ZM10.8334 6.52087C10.8334 8.92561 8.88393 10.875 6.47919 10.875C4.07445 10.875 2.12502 8.92561 2.12502 6.52087C2.12502 4.11613 4.07445 2.16671 6.47919 2.16671C8.88393 2.16671 10.8334 4.11613 10.8334 6.52087Z" fill="#636363"/>
</svg>
